<?xml version="1.0" encoding="UTF-8"?>
<!DOCTYPE svg PUBLIC "-//W3C//DTD SVG 1.1//EN" "http://www.w3.org/Graphics/SVG/1.1/DTD/svg11.dtd">
<!-- Creator: CorelDRAW X6 -->
<svg xmlns="http://www.w3.org/2000/svg" xml:space="preserve" width="100mm" height="23mm" version="1.1" style="shape-rendering:geometricPrecision; text-rendering:geometricPrecision; image-rendering:optimizeQuality; fill-rule:evenodd; clip-rule:evenodd" viewBox="0 0 10000 2300" xmlns:xlink="http://www.w3.org/1999/xlink">
 <defs>
  <style type="text/css">
   <![CDATA[
    .fil0 {fill:#1CBBEE}
    .fil1 {fill:#F1F1F1}
    .fil3 {fill:#1CBBEE;fill-rule:nonzero}
    .fil2 {fill:#5B5B5B;fill-rule:nonzero}
   ]]>
  </style>
 </defs>
 <g id="Vrstva_x0020_1">
  <metadata id="CorelCorpID_0Corel-Layer"/>
  <path class="fil0" d="M289 0l9422 0c159,0 289,130 289,289l0 1723c0,159 -130,289 -289,289l-9422 0c-159,0 -289,-130 -289,-289l0 -1723c0,-159 130,-289 289,-289z"/>
  <path class="fil1" d="M339 80l9322 0c159,0 259,100 259,259l0 1623c0,158 -101,259 -259,259l-9322 0c-159,0 -259,-100 -259,-259l0 -1623c0,-159 100,-259 259,-259z"/>
  <polygon class="fil2" points="4235,664 4333,664 4333,1511 4704,1511 4704,1600 4235,1600 "/>
  <polygon id="1" class="fil2" points="6062,1600 5599,1600 5599,664 5763,664 5763,1451 6062,1451 "/>
  <path id="2" class="fil2" d="M6454 641c112,0 198,43 260,130 62,87 92,209 92,367 0,153 -31,272 -93,357 -62,85 -148,128 -258,128 -109,0 -195,-44 -256,-131 -62,-87 -93,-209 -93,-364 0,-79 10,-153 30,-221 20,-68 48,-123 84,-165 58,-68 136,-102 234,-102zm1 149c-55,0 -98,29 -129,88 -32,58 -47,139 -47,242 0,113 16,200 47,262 31,62 75,93 132,93 54,0 96,-30 128,-91 32,-60 48,-142 48,-244 0,-108 -16,-193 -48,-256 -32,-63 -76,-94 -131,-94z"/>
  <path id="3" class="fil2" d="M7186 1102l406 0 1 56c0,150 -23,260 -69,331 -27,43 -65,76 -111,99 -47,23 -99,35 -156,35 -114,0 -204,-43 -269,-128 -65,-85 -97,-203 -97,-353 0,-162 32,-286 95,-372 63,-86 154,-129 273,-129 112,0 197,40 254,118 21,29 37,59 47,91 11,32 20,73 26,123l-164 0c-11,-68 -29,-116 -54,-143 -25,-27 -62,-41 -111,-41 -68,0 -117,28 -148,83 -31,55 -47,143 -47,265 0,111 16,195 48,252 32,57 78,85 140,85 114,0 171,-75 171,-225l-236 0 0 -149z"/>
  <polygon id="4" class="fil2" points="7878,664 7878,1600 7714,1600 7714,664 "/>
  <polygon id="5" class="fil2" points="8660,664 8660,1600 8490,1600 8195,964 8195,1600 8031,1600 8031,664 8200,664 8496,1301 8496,664 "/>
  <path id="6" class="fil3" d="M5313 929l-100 0c-3,-38 -6,-64 -9,-78 -4,-15 -9,-29 -18,-42 -29,-46 -78,-69 -145,-69 -54,0 -96,14 -124,40 -31,29 -47,67 -47,113 0,37 10,68 31,92 20,24 53,43 96,58l50 16c100,33 165,62 195,86 64,49 96,116 96,202 0,66 -20,123 -60,172 -52,63 -130,95 -235,95 -126,0 -211,-45 -255,-135 -25,-51 -38,-107 -38,-166l101 0c0,66 17,118 51,156 34,38 81,57 140,57 60,0 107,-15 142,-47 34,-31 51,-74 51,-129 0,-47 -16,-85 -49,-114 -16,-14 -34,-26 -54,-35 -20,-9 -54,-22 -102,-37 -84,-28 -143,-55 -178,-82 -58,-44 -86,-105 -86,-182 0,-36 8,-72 23,-105 15,-33 37,-62 64,-84 47,-39 109,-59 187,-59 104,0 179,34 227,102 29,41 43,100 43,175z"/>
  <g id="_675579504">
   <path class="fil3" d="M2074 1036c8,0 16,-1 23,-3l223 539c9,-4 18,-8 28,-12l-223 -538c28,-17 47,-48 47,-83 0,-54 -44,-97 -98,-97 -54,0 -97,43 -97,97 0,54 43,97 97,97z"/>
   <path class="fil3" d="M1502 1271c48,0 92,-18 126,-47l486 489c7,-7 14,-14 22,-21l-486 -490c29,-34 47,-78 47,-127 0,-108 -87,-195 -195,-195 -107,0 -194,87 -194,195 0,108 87,195 194,195z"/>
   <path class="fil3" d="M3045 1707c7,7 14,14 21,22l502 -472c26,23 60,37 98,37 83,0 150,-67 150,-150 0,-83 -67,-150 -150,-150 -83,0 -150,67 -150,150 0,34 12,66 31,91l-502 472z"/>
   <path class="fil3" d="M2567 715l0 802 15 -1 15 1 0 -802c76,-7 135,-71 135,-149 0,-83 -67,-150 -150,-150 -83,0 -150,67 -150,150 0,77 59,141 135,149z"/>
   <path class="fil3" d="M2847 1573l211 -502c8,2 15,3 24,3 54,0 97,-44 97,-97 0,-54 -43,-97 -97,-97 -54,0 -97,43 -97,97 0,35 19,65 46,83l-211 501c9,4 18,8 27,12z"/>
  </g>
 </g>
</svg>